<svg width="549" height="544" viewBox="0 0 549 544" fill="none" xmlns="http://www.w3.org/2000/svg">
<g id="Nube Gotas">
<path id="gotita" d="M239.233 490.774C247.146 466.605 256.718 457.601 276.715 421.604C291.888 462.045 313.086 485.573 291.338 520.25C276.22 544.355 230.659 532.014 239.233 490.774Z" fill="#85B6FF" stroke="black" stroke-width="10"/>
<path id="Nube" d="M459.086 322.99H74.1679C-9.75887 322.99 -22.1661 182.774 102.525 189.991C-4.47475 72.991 227.525 -77.009 315.525 72.991C392.525 18.991 465.086 105.944 419.525 168.991C554.525 105.944 583.777 322.99 459.086 322.99Z" fill="#0044FF" stroke="black" stroke-width="20"/>
<path id="gotita_2" d="M354.233 429.774C362.146 405.605 371.718 396.601 391.715 360.604C406.888 401.045 428.086 424.573 406.338 459.25C391.22 483.355 345.659 471.014 354.233 429.774Z" fill="#85B6FF" stroke="black" stroke-width="10"/>
<path id="gotita 3" d="M122.307 442.525C130.3 418.11 139.969 409.014 160.169 372.651C175.498 413.503 196.911 437.271 174.941 472.3C159.669 496.65 113.646 484.184 122.307 442.525Z" fill="#85B6FF" stroke="black" stroke-width="10"/>
</g>
</svg>
